<?xml version="1.0" encoding="UTF-8"?>
<svg id="_图层_1" data-name="图层 1" xmlns="http://www.w3.org/2000/svg" viewBox="0 0 667 627">
  <defs>
    <style>
      .cls-1, .cls-2 {
        stroke-width: 0px;
      }

      .cls-2 {
        fill: #fff;
      }
    </style>
  </defs>
  <path class="cls-1" d="m189.01,174.46c12.81,0,25.09.05,37.37-.02,4.66-.03,9.4.13,13.97-.61,4.81-.77,9.42-2.66,14.19-3.79,5.48-1.3,11.01-3.09,16.56-3.3,16.6-.63,33.23-.75,49.85-.65,3.11.02,6.16,2.15,9.31,3.03,4.94,1.38,9.88,3.09,14.93,3.69,52.34,6.2,104.87,9.04,157.58,8.21,5.61-.09,10.73-1.2,16.1-3.83,4.69-2.3,11.1-1.08,16.88-1.42.15,2.48.25,3.46.25,4.44,0,71.15-.08,142.3.12,213.45.01,4.88-1.69,7.26-5.99,7.87-11.19,1.59-22.41,4.01-33.63,4.13-31.47.32-62.97.26-94.41-.91-13.87-.52-27.59-4.33-41.43-6.21-29.41-3.98-58.93-7.5-88.63-4.33-12.51,1.33-24.8,4.73-37.18,7.21-11.32,2.27-22.67,3.83-34.2,1.68-1.3-.24-2.6-.56-3.87-.96-7.44-2.32-7.77-2.79-7.77-10.37,0-70.32,0-140.63,0-210.95v-6.37Zm207.89,133.7c11.67-2.24,18.11-9.62,20.97-20.03,4.53-16.45-2.7-29.59-13.35-41.18-6.83-7.43-15.75-10.23-25.83-9.11-5.76.64-7.99,3.31-5.74,8.75,1.77,4.29,4.72,8.38,8,11.71,6.26,6.35,10.99,13.24,12.13,22.31,1.13,9.02,2.49,18.01,3.83,27.55Zm-72.37-30.51c.11,1.35.2,3.18.42,5,1.74,14.54,9.61,24.75,22.11,27.76,2.65.64,7.19.09,8.43-1.65,1.8-2.51,2.1-6.7,1.68-10-.29-2.28-2.8-4.33-4.44-6.39-1.55-1.94-3.49-3.6-4.84-5.65-5.74-8.68-5.14-26.12,7.39-30.3,3.76-1.25,6.85-4.27,5.48-8.83-1.43-4.79-5.93-3.57-9.34-3.4-15.05.74-27.69,16.37-26.89,33.47Zm24.41-3.94c0,11,10.45,21.19,21.69,21.11,9.9-.07,17.23-6.93,17.26-16.14.03-11.07-10.61-21.12-22.31-21.07-9.58.04-16.63,6.86-16.64,16.1Zm-.46,47.92c.09-.5.17-1,.26-1.5-1.81-1.06-3.65-2.06-5.42-3.18-15.94-10.02-26.68-23.31-27.38-43.08-.08-2.25-1.3-4.45-1.99-6.68-2.44.76-5.13,1.11-7.25,2.39-1.9,1.14-3.44,3.14-4.7,5.06-8.62,13.05-.04,37.65,14.98,42.16,7.44,2.23,15.22,3.41,22.9,4.76,2.79.49,5.74.08,8.61.08Zm17.38,1.94c-.1.54-.19,1.08-.29,1.61,3.55,1.63,6.96,3.77,10.67,4.81,23.76,6.63,52.67-12.58,57.78-38.26.54-2.7.73-5.47,1.08-8.21-.44-.07-.87-.15-1.31-.22-.92,1.9-1.79,3.82-2.78,5.68-7.6,14.25-18.44,23.44-35.58,22.91-1.09-.03-2.44.15-3.27.77-7.82,5.86-16.33,10.07-26.3,10.9Zm24.08-34.28c-7.01,9.1-16.18,11.24-26.91,9.64.52,7.23.04,13.62-8.85,16.49,11,3.26,20.1,1.42,28.53-2.8,7.63-3.82,11.1-15.28,7.22-23.33Z"/>
  <path class="cls-1" d="m152.01,328.51c0-48.16.02-96.32-.07-144.48,0-2.37-.83-4.82-1.65-7.1-1.46-4.06-3.6-7.91-4.74-12.05-1.24-4.52-1.83-9,3.4-12.28,3.39-2.13,5.82-7.5,9.01-7.79,3.33-.3,7.06,3.74,10.59,5.92,2.11,1.3,4.56,2.32,6.16,4.09,3.19,3.55,3.35,8.08.25,11.43-8.67,9.36-9.21,20.45-9.18,32.39.28,91.65.19,183.31.21,274.96,0,6.86-1.34,8.43-7.11,8.37-4.7-.05-6.85-2.81-6.86-8.98-.01-34.33,0-68.66,0-102.99,0-13.83,0-27.66,0-41.5Z"/>
  <path class="cls-2" d="m396.91,308.16c-1.33-9.53-2.7-18.53-3.83-27.55-1.13-9.07-5.86-15.96-12.13-22.31-3.28-3.33-6.23-7.42-8-11.71-2.24-5.44-.02-8.11,5.74-8.75,10.08-1.12,19,1.68,25.83,9.11,10.65,11.59,17.88,24.72,13.35,41.18-2.86,10.41-9.31,17.79-20.97,20.03Z"/>
  <path class="cls-2" d="m324.53,277.66c-.8-17.1,11.83-32.73,26.89-33.47,3.42-.17,7.91-1.39,9.34,3.4,1.36,4.57-1.73,7.58-5.48,8.83-12.53,4.18-13.13,21.62-7.39,30.3,1.36,2.05,3.3,3.71,4.84,5.65,1.64,2.06,4.15,4.1,4.44,6.39.42,3.3.12,7.49-1.68,10-1.24,1.74-5.78,2.29-8.43,1.65-12.5-3.01-20.37-13.22-22.11-27.76-.22-1.82-.31-3.65-.42-5Z"/>
  <path class="cls-2" d="m348.94,273.71c0-9.24,7.06-16.06,16.64-16.1,11.7-.05,22.33,10,22.31,21.07-.02,9.21-7.36,16.07-17.26,16.14-11.23.08-21.69-10.1-21.69-21.11Z"/>
  <path class="cls-2" d="m348.49,321.63c-2.87,0-5.82.41-8.61-.08-7.68-1.35-15.45-2.53-22.9-4.76-15.02-4.5-23.6-29.11-14.98-42.16,1.26-1.91,2.8-3.91,4.7-5.06,2.13-1.28,4.81-1.63,7.25-2.39.69,2.23,1.91,4.43,1.99,6.68.69,19.77,11.44,33.06,27.38,43.08,1.77,1.12,3.61,2.12,5.42,3.18-.09.5-.17,1-.26,1.5Z"/>
  <path class="cls-2" d="m365.86,323.56c9.98-.83,18.48-5.04,26.3-10.9.83-.62,2.18-.81,3.27-.77,17.14.53,27.98-8.67,35.58-22.91.99-1.86,1.86-3.79,2.78-5.68.44.07.87.15,1.31.22-.35,2.74-.54,5.51-1.08,8.21-5.11,25.68-34.01,44.89-57.78,38.26-3.72-1.04-7.12-3.18-10.67-4.81.1-.54.19-1.08.29-1.61Z"/>
  <path class="cls-2" d="m389.94,289.28c3.87,8.05.41,19.51-7.22,23.33-8.44,4.23-17.53,6.06-28.53,2.8,8.89-2.86,9.37-9.26,8.85-16.49,10.73,1.59,19.9-.54,26.91-9.64Z"/>
</svg>